<?xml version="1.0" encoding="iso-8859-1"?>
<!-- Generator: Adobe Illustrator 19.0.0, SVG Export Plug-In . SVG Version: 6.00 Build 0)  -->
<svg version="1.1" id="Capa_1" xmlns="http://www.w3.org/2000/svg" xmlns:xlink="http://www.w3.org/1999/xlink" x="0px" y="0px"
	 viewBox="0 0 512 512" style="enable-background:new 0 0 512 512;" xml:space="preserve">
<g transform="translate(0 -0.957)">
	<g>
		<g>
			<path d="M256,0.957c-141.158,0-256,114.842-256,256s114.842,256,256,256s256-114.842,256-256S397.158,0.957,256,0.957z
				 M256,495.89c-131.746,0-238.933-107.187-238.933-238.933S124.254,18.024,256,18.024s238.933,107.187,238.933,238.933
				S387.746,495.89,256,495.89z"/>
			<path d="M207.98,75.311c0.7,0,1.408-0.085,2.116-0.265c15.087-3.849,30.532-5.811,45.909-5.82
				c4.719-0.009,8.533-3.831,8.525-8.542c0-4.71-3.823-8.525-8.533-8.525h-0.009c-16.794,0.009-33.655,2.15-50.116,6.349
				c-4.565,1.161-7.322,5.811-6.153,10.385C200.701,72.751,204.174,75.311,207.98,75.311z"/>
			<path d="M178.832,76.547c-2.048-4.25-7.159-6.025-11.401-3.985c-40.226,19.413-73.455,51.601-93.56,90.641
				c-2.159,4.19-0.512,9.336,3.678,11.494c1.246,0.64,2.586,0.947,3.9,0.947c3.098,0,6.076-1.69,7.595-4.625
				c18.415-35.772,48.896-65.271,85.803-83.081C179.097,85.891,180.872,80.788,178.832,76.547z"/>
			<path d="M69.214,195.918c-4.54-1.254-9.242,1.391-10.513,5.931c-4.966,17.869-7.492,36.412-7.501,55.108
				c0,4.71,3.814,8.533,8.533,8.533c4.71,0,8.533-3.814,8.533-8.533c0.009-17.152,2.321-34.15,6.878-50.534
				C76.407,201.883,73.754,197.181,69.214,195.918z"/>
			<path d="M304.87,438.077c-16,4.378-32.444,6.605-48.87,6.613c-4.719,0-8.533,3.823-8.533,8.533c0,4.719,3.823,8.533,8.533,8.533
				c17.954-0.009,35.908-2.441,53.367-7.219c4.548-1.246,7.228-5.939,5.982-10.479C314.103,439.511,309.393,436.823,304.87,438.077z
				"/>
			<path d="M437.631,331.968c-4.267-2.005-9.344-0.145-11.341,4.13c-17.186,36.89-46.865,67.797-83.558,87.04
				c-4.181,2.193-5.786,7.347-3.601,11.52c1.527,2.91,4.497,4.574,7.569,4.574c1.331,0,2.688-0.316,3.951-0.973
				c39.996-20.975,72.354-54.69,91.11-94.959C443.75,339.025,441.898,333.957,437.631,331.968z"/>
			<path d="M452.272,248.424h-0.009c-4.702,0-8.525,3.814-8.533,8.525c-0.008,14.609-1.672,29.099-4.958,43.059
				c-1.075,4.591,1.775,9.182,6.366,10.266c0.657,0.154,1.306,0.222,1.954,0.222c3.874,0,7.373-2.654,8.303-6.579
				c3.575-15.24,5.393-31.036,5.402-46.95C460.805,252.255,456.991,248.432,452.272,248.424z"/>
			<path d="M351.838,342.29c0-4.267-1.237-8.209-3.302-11.665c8.397-4.267,15.112-12.51,15.112-22.468
				c0-4.753-0.964-9.088-2.697-12.783c7.919-3.738,14.515-10.342,14.515-21.35c0-6.562-1.877-14.293-9.199-19.473
				c3.226-4.096,5.265-9.114,5.265-14.66c0-14.114-10.897-25.6-24.294-25.6h-51.063l1.877-9.523
				c3.959-20.028,1.374-42.598,0.495-49.041c-2.287-16.7-15.992-35.302-31.992-35.302h-0.947c-6.434,0-21.427,3.328-21.427,34.133
				c0,34.987-8.457,48.444-13.5,53.359c-4.039,3.927-7.73,4.333-9.057,4.391c-0.897-3.756-4.266-6.545-8.291-6.545h-51.2
				c-4.71,0-8.533,3.814-8.533,8.533v153.6c0,4.71,3.823,8.533,8.533,8.533h51.2c4.71,0,8.533-3.823,8.533-8.533v-0.004h105.685
				C340.941,367.89,351.838,356.405,351.838,342.29z M204.8,359.361h-34.133V222.828H204.8v136.529V359.361z M324.267,316.69h-25.6
				c-4.71,0-8.533,3.823-8.533,8.533c0,4.71,3.823,8.533,8.533,8.533h25.6c4.395,0,10.505,4.301,10.505,8.533
				c0,4.702-3.234,8.533-7.219,8.533H221.867V229.403c3.362-0.026,11.597-0.939,19.763-8.354
				c13.013-11.827,19.618-34.202,19.618-66.492c0-11.767,2.552-17.067,4.361-17.067h0.947c5.248,0,13.662,10.155,15.078,20.548
				c0.794,5.786,3.115,25.993-0.324,43.426l-3.891,19.703c-0.495,2.509,0.162,5.103,1.784,7.074s4.036,3.115,6.588,3.115h61.448
				c3.985,0,7.228,3.831,7.228,8.533c0,4.395-5.547,8.533-9.848,8.533H332.8h-25.6c-4.71,0-8.533,3.823-8.533,8.533
				s3.823,8.533,8.533,8.533h25.6c4.958,0,13.79,0.239,17.033,0.76c8.158,1.314,8.568,3.806,8.568,7.774
				c0,8.055-16.922,8.533-17.067,8.533h-25.6c-4.71,0-8.533,3.823-8.533,8.533s3.823,8.533,8.533,8.533h25.6
				c5.103,0,5.248,7.654,5.248,8.533c0,4.233-6.11,8.533-10.496,8.533H324.267z"/>
		</g>
	</g>
</g>
<g>
</g>
<g>
</g>
<g>
</g>
<g>
</g>
<g>
</g>
<g>
</g>
<g>
</g>
<g>
</g>
<g>
</g>
<g>
</g>
<g>
</g>
<g>
</g>
<g>
</g>
<g>
</g>
<g>
</g>
</svg>
