<svg height="512" viewBox="0 0 512 512" width="512" xmlns="http://www.w3.org/2000/svg"><g id="filled_outline" data-name="filled outline"><path d="m24 112h464v368h-464z" fill="#fbb540"/><path d="m24 112h464v120h-464z" fill="#da922a"/><path d="m56 144h392v56h-392z" fill="#f3af3e"/><path d="m56 264h208v216h-208z" fill="#3775a4"/><path d="m264 448h80v32h-80z" fill="#dbdbdb"/><path d="m336 448h8v32h-8z" fill="#cdcdcd"/><path d="m264 464h80v16h-80z" fill="#a8a8a8"/><path d="m336 464h8v16h-8z" fill="#a0a0a0"/><path d="m264 328h80v120h-80z" fill="#a83b32"/><path d="m264 336h72v112h-72z" fill="#c7463b"/><path d="m344 328h144v88h-144z" fill="#b8eaee"/><path d="m344 409.026h144v7.026h-144z" fill="#a6d4d8"/><path d="m56 264h208v72h-208z" fill="#428dc5"/><path d="m56 264h208v8h-208z" fill="#3878a8"/><path d="m264 312h-208v-24h208z" fill="#4799cf"/><path d="m96 416h128a8 8 0 0 1 8 8v24a0 0 0 0 1 0 0h-144a0 0 0 0 1 0 0v-24a8 8 0 0 1 8-8z" fill="#fd9226"/><path d="m96 448h32a0 0 0 0 1 0 0v28a4 4 0 0 1 -4 4h-24a4 4 0 0 1 -4-4v-28a0 0 0 0 1 0 0z" fill="#a8a8a8"/><path d="m96 448h32v8h-32z" fill="#878787"/><path d="m192 448h32a0 0 0 0 1 0 0v28a4 4 0 0 1 -4 4h-24a4 4 0 0 1 -4-4v-28a0 0 0 0 1 0 0z" fill="#a8a8a8"/><path d="m192 448h32v8h-32z" fill="#878787"/><path d="m216 416h-112l6.19-37.14a12.3 12.3 0 0 1 .54-2.13 13 13 0 0 1 12.28-8.73h73.98a12.993 12.993 0 0 1 12.82 10.86z" fill="#ebebeb"/><path d="m206.67 416h-102.67l6.19-37.14a12.3 12.3 0 0 1 .54-2.13 12.743 12.743 0 0 1 4.28-.73h73.98a12.993 12.993 0 0 1 12.82 10.86z" fill="#dbdbdb"/><path d="m120 416h80v32h-80z" fill="#5e8569"/><path d="m120 440h80v8h-80z" fill="#55785f"/><path d="m224 336h16v32h-16z" fill="#4799cf"/><path d="m224 336h16v8h-16z" fill="#3878a8"/><path d="m432 328-22.1 81.03-1.9 6.97h-32l1.9-6.97 22.1-81.03z" fill="#c0f5f9"/><path d="m480.3 328-22.11 81.03-1.9 6.97h-16.58l1.9-6.97 22.1-81.03z" fill="#c0f5f9"/><path d="m264 296h80v32h-80z" fill="#da922a"/><path d="m344 112a88 88 0 1 1 -88-88 88.029 88.029 0 0 1 88 88z" fill="#d18d28"/><path d="m312 112a55.934 55.934 0 0 1 -24 45.95v36.05a88.333 88.333 0 0 1 -64 0v-36.05a56 56 0 0 1 8-96.55v50.6l24 16 24-16v-50.6a55.98 55.98 0 0 1 32 50.6z" fill="#cdcdcd"/><path d="m288 157.96v36.04a87.852 87.852 0 0 1 -32 6v-32a55.716 55.716 0 0 0 32-10.04z" fill="#b9b9b9"/><path d="m377.9 409.03h32l-1.9 6.97h-32z" fill="#b6e9ec"/><path d="m458.19 409.03-1.9 6.97h-16.58l1.9-6.97z" fill="#b6e9ec"/><path d="m480 328h8v88h-8z" fill="#a6d4d8"/><path d="m256 264h8v72h-8z" fill="#3878a8"/><path d="m256 336h8v144h-8z" fill="#30668f"/><path d="m24 232h464v8h-464z" fill="#ea9d2d"/><path d="m488 104h-136.336a96 96 0 0 0 -191.328 0h-136.336a8 8 0 0 0 -8 8v368a8 8 0 0 0 8 8h464a8 8 0 0 0 8-8v-368a8 8 0 0 0 -8-8zm-232-72a79.971 79.971 0 0 1 40 149.237v-19.293a63.992 63.992 0 0 0 -12.567-107.773 8 8 0 0 0 -11.433 7.229v46.323l-16 10.666-16-10.666v-46.323a8 8 0 0 0 -11.433-7.225 63.992 63.992 0 0 0 -12.567 107.769v19.293a79.971 79.971 0 0 1 40-149.237zm87.259 120h96.741v40h-131a96.619 96.619 0 0 0 34.259-40zm-87.259 8a8 8 0 0 0 -8 8v23.6a79.433 79.433 0 0 1 -16-3.282v-30.373a8 8 0 0 0 -3.422-6.56 47.958 47.958 0 0 1 -4.578-75.132v35.747a8 8 0 0 0 3.562 6.656l24 16a8 8 0 0 0 8.876 0l24-16a8 8 0 0 0 3.562-6.656v-35.747a47.958 47.958 0 0 1 -4.578 75.132c-.047.032-.087.072-.133.105a47.694 47.694 0 0 1 -27.289 8.51zm24 11.344v16.973a79.433 79.433 0 0 1 -16 3.282v-16.093a63.418 63.418 0 0 0 16-4.162zm-77 20.656h-139v-40h104.741a96.619 96.619 0 0 0 34.259 40zm-107 248v-16h16v16zm24 32h-16v-16h16zm64 0h-48v-16h48zm8-32h-64v-16h64zm-72-32h-6.556l4.637-27.821a4.985 4.985 0 0 1 4.932-4.179h73.974a4.985 4.985 0 0 1 4.932 4.179l4.637 27.821zm96 64h-16v-16h16zm8-32h-16v-16h16zm32 32h-24v-16a8 8 0 0 0 8-8v-24a16.019 16.019 0 0 0 -16-16h-1.223l-5.077-30.452a20.935 20.935 0 0 0 -20.713-17.548h-73.974a20.935 20.935 0 0 0 -20.713 17.548l-5.077 30.452h-1.223a16.019 16.019 0 0 0 -16 16v24a8 8 0 0 0 8 8v16h-24v-128h160v24h16v-24h16zm0-144h-192v-8h192zm0-24h-192v-8h192zm0-24h-192v-8h192zm80 192h-64v-16h64zm0-32h-64v-104h64zm0-120h-64v-16h64zm144 152h-128v-48h128zm-78.11-64h-15.416l19.636-72h15.416zm36.22-72h23.416l-19.636 72h-23.416zm-68.22 72h-17.89v-72h37.526zm110.11 0h-21.526l19.636-72h1.89zm0-88h-128v-24a8 8 0 0 0 -8-8h-72v-24a8 8 0 0 0 -8-8h-208a8 8 0 0 0 -8 8v208h-16v-232h448zm0-96h-448v-104h128.336a95.553 95.553 0 0 0 2.7 16h-107.036a8 8 0 0 0 -8 8v56a8 8 0 0 0 8 8h392a8 8 0 0 0 8-8v-56a8 8 0 0 0 -8-8h-99.037a95.553 95.553 0 0 0 2.7-16h128.337z"/></g></svg>